<svg width="20" height="20" viewBox="0 0 20 20" fill="none" xmlns="http://www.w3.org/2000/svg">
<path d="M10.0017 3.18439C10.2149 3.18439 10.395 3.00003 10.395 2.78847V1.50701C10.395 1.29242 10.2119 1.11108 10.0017 1.11108C9.79155 1.11108 9.6084 1.29544 9.6084 1.50701V2.81869C9.63842 3.00305 9.79155 3.18439 10.0017 3.18439Z" fill="url(#paint0_linear_1373_1539)"/>
<path d="M13.8808 5.29126L14.9707 4.65053C15.1538 4.55986 15.2139 4.31505 15.0908 4.13069C15.0007 3.94633 14.7575 3.88588 14.5743 4.0098L13.4844 4.65053C13.3013 4.7412 13.2413 4.986 13.3644 5.17036C13.4844 5.32148 13.6976 5.38495 13.8808 5.29126Z" fill="url(#paint1_linear_1373_1539)"/>
<path d="M5.03024 4.61985L6.12013 5.26058C6.30328 5.38148 6.54348 5.29081 6.63655 5.13969C6.72663 4.95533 6.66658 4.71355 6.51646 4.61985L5.42656 3.97912C5.24341 3.88845 5.00321 3.9489 4.91014 4.10002C4.79004 4.28438 4.85009 4.52616 5.03024 4.61985Z" fill="url(#paint2_linear_1373_1539)"/>
<path d="M11.8478 3.88576C12.0309 3.97643 12.2711 3.91598 12.3642 3.73464L12.7575 3.06369C12.8476 2.87933 12.7875 2.63755 12.6074 2.54385C12.4242 2.45318 12.184 2.51363 12.091 2.69497L11.6976 3.36592C11.6076 3.51704 11.6676 3.76184 11.8478 3.88576Z" fill="url(#paint3_linear_1373_1539)"/>
<path d="M7.63586 3.73439C7.72593 3.91875 7.96913 3.9792 8.15228 3.88551C8.33543 3.79484 8.39548 3.55003 8.3024 3.36567L7.90908 2.69472C7.81901 2.51036 7.57581 2.44991 7.39266 2.5436C7.20951 2.63427 7.14946 2.87908 7.24253 3.06344L7.63586 3.73439Z" fill="url(#paint4_linear_1373_1539)"/>
<path d="M10.0018 8.76685C9.36523 8.76685 8.88184 9.28668 8.88184 9.92741C8.88184 10.5681 9.39826 11.085 10.0018 11.085C10.6383 11.085 11.1547 10.5651 11.1547 9.92741C11.1547 9.28971 10.6383 8.76685 10.0018 8.76685ZM10.0018 10.2931C9.78858 10.2931 9.60843 10.1088 9.60843 9.89719C9.60843 9.68563 9.79158 9.50127 10.0018 9.50127C10.2119 9.50127 10.3951 9.68563 10.3951 9.89719C10.3951 10.1088 10.2119 10.2931 10.0018 10.2931Z" fill="url(#paint5_linear_1373_1539)"/>
<path d="M17.0306 16.7606H16.334C16.4241 16.5763 16.4541 16.3949 16.4541 16.1804C16.4541 15.5094 15.9677 14.9593 15.3012 14.8687V9.89697C15.3012 6.96835 12.9082 4.55957 9.99883 4.55957C7.08944 4.55957 4.69648 6.96835 4.69648 9.89697V14.8687C4.05995 14.9593 3.57656 15.5094 3.57656 16.1804C3.57656 16.3949 3.63661 16.5763 3.69666 16.7606H3.00009C2.27349 16.7606 1.66699 17.3711 1.66699 18.1025C1.66699 18.8339 2.27349 19.4444 3.00009 19.4444H17.0006C17.7272 19.4444 18.3337 18.8339 18.3337 18.1025C18.3337 17.3711 17.7572 16.7606 17.0306 16.7606ZM5.4561 9.89697C5.4561 7.36427 7.48576 5.32119 10.0018 5.32119C12.5179 5.32119 14.5476 7.36427 14.5476 9.89697V14.8384H13.0313V12.1849C13.0313 12.0942 13.0013 11.9703 12.9112 11.9098L12.0015 10.9941C12.1846 10.6586 12.2747 10.2929 12.2747 9.89697C12.2747 8.64573 11.2448 7.60908 10.0018 7.60908C8.75881 7.60908 7.72896 8.64573 7.72896 9.89697C7.72896 10.2929 7.81904 10.6586 8.00219 10.9941L7.09244 11.9098C7.03239 11.9703 6.97234 12.0942 6.97234 12.1849V14.8384H5.4561V9.89697ZM10.3952 14.8687V12.1546C10.8185 12.0942 11.2148 11.8796 11.5481 11.6046L12.3047 12.3662V14.8687H10.3952ZM7.72896 14.8687V12.3662L8.48558 11.6046C8.78883 11.8796 9.18216 12.0942 9.63853 12.1546V14.8687H7.72896ZM10.0018 11.4232C9.15213 11.4232 8.48558 10.7523 8.48558 9.89697C8.48558 9.04166 9.15213 8.3707 10.0018 8.3707C10.8515 8.3707 11.5181 9.04166 11.5181 9.89697C11.5181 10.7523 10.8515 11.4232 10.0018 11.4232ZM17.0306 18.6828H3.00009C2.69684 18.6828 2.42361 18.438 2.42361 18.1025C2.42361 17.7973 2.66681 17.5223 3.00009 17.5223H12.668C12.8812 17.5223 13.0613 17.3379 13.0613 17.1263C13.0613 16.9148 12.8782 16.7304 12.668 16.7304H4.90965C4.6064 16.7304 4.33318 16.4856 4.33318 16.1501C4.33318 15.8147 4.57638 15.5698 4.90965 15.5698H15.1541C15.4573 15.5698 15.7305 15.8147 15.7305 16.1501C15.7305 16.4856 15.4273 16.7606 15.124 16.7606C14.9109 16.7606 14.7307 16.945 14.7307 17.1566C14.7307 17.3681 14.9139 17.5525 15.124 17.5525H17.0336C17.3368 17.5525 17.6101 17.7973 17.6101 18.1328C17.58 18.4078 17.3368 18.6828 17.0336 18.6828H17.0306Z" fill="url(#paint6_linear_1373_1539)"/>
<defs>
<linearGradient id="paint0_linear_1373_1539" x1="9.56254" y1="1.11108" x2="10.4774" y2="1.17416" gradientUnits="userSpaceOnUse">
<stop stop-color="#6FB2D0"/>
<stop offset="1" stop-color="#4166B9"/>
</linearGradient>
<linearGradient id="paint1_linear_1373_1539" x1="13.1916" y1="3.94482" x2="15.2395" y2="4.44142" gradientUnits="userSpaceOnUse">
<stop stop-color="#6FB2D0"/>
<stop offset="1" stop-color="#4166B9"/>
</linearGradient>
<linearGradient id="paint2_linear_1373_1539" x1="4.7409" y1="3.93652" x2="6.76321" y2="4.42412" gradientUnits="userSpaceOnUse">
<stop stop-color="#6FB2D0"/>
<stop offset="1" stop-color="#4166B9"/>
</linearGradient>
<linearGradient id="paint3_linear_1373_1539" x1="11.5896" y1="2.5022" x2="12.8971" y2="2.69267" gradientUnits="userSpaceOnUse">
<stop stop-color="#6FB2D0"/>
<stop offset="1" stop-color="#4166B9"/>
</linearGradient>
<linearGradient id="paint4_linear_1373_1539" x1="7.13238" y1="2.5" x2="8.44424" y2="2.69124" gradientUnits="userSpaceOnUse">
<stop stop-color="#6FB2D0"/>
<stop offset="1" stop-color="#4166B9"/>
</linearGradient>
<linearGradient id="paint5_linear_1373_1539" x1="8.74934" y1="8.76685" x2="11.3236" y2="9.22548" gradientUnits="userSpaceOnUse">
<stop stop-color="#6FB2D0"/>
<stop offset="1" stop-color="#4166B9"/>
</linearGradient>
<linearGradient id="paint6_linear_1373_1539" x1="0.695393" y1="4.55957" x2="19.397" y2="8.36459" gradientUnits="userSpaceOnUse">
<stop stop-color="#6FB2D0"/>
<stop offset="1" stop-color="#4166B9"/>
</linearGradient>
</defs>
</svg>
