<svg width="153" height="176" viewBox="0 0 153 176" fill="none" xmlns="http://www.w3.org/2000/svg">
<g clip-path="url(#clip0_1312_4677)">
<mask id="mask0_1312_4677" style="mask-type:alpha" maskUnits="userSpaceOnUse" x="-547" y="0" width="893" height="176">
<path d="M-539 168L-475 105L-377 52L-213.5 19H-185L-50 52L-22 59H2.5L32 52L67.5 31L107 19L135.5 16C149.5 16 166.5 12.5007 166.5 12.5007C176 9.99966 191.8 5.20004 209 10C230.333 19.8335 276.5 39.3005 290.5 38.5005C302.667 40.0002 329.2 46.1997 338 59" stroke="#9A9A9A" stroke-width="15" stroke-linecap="round"/>
</mask>
<g mask="url(#mask0_1312_4677)">
<rect y="-36" width="153" height="193" fill="url(#paint0_linear_1312_4677)"/>
</g>
</g>
<defs>
<linearGradient id="paint0_linear_1312_4677" x1="21.6196" y1="14.3478" x2="206.076" y2="155.754" gradientUnits="userSpaceOnUse">
<stop stop-color="#F88F0E"/>
<stop offset="1" stop-color="#D15E2C" stop-opacity="0.78"/>
</linearGradient>
<clipPath id="clip0_1312_4677">
<rect width="153" height="176" fill="white"/>
</clipPath>
</defs>
</svg>
