<svg width="119" height="176" viewBox="0 0 119 176" fill="none" xmlns="http://www.w3.org/2000/svg">
<g clip-path="url(#clip0_1312_4721)">
<mask id="mask0_1312_4721" style="mask-type:alpha" maskUnits="userSpaceOnUse" x="-301" y="4" width="903" height="186">
<path d="M-288 177L-224 114L-126 61L37.5 28H66L201 61L229 68H253.5L283 61L318.5 40L358 28L386.5 25C400.5 25 417.5 21.5007 417.5 21.5007C427 18.9997 442.8 14.2 460 19C481.333 28.8335 527.5 48.3005 541.5 47.5005C553.667 49.0002 580.2 55.1997 589 68" stroke="#9A9A9A" stroke-width="25" stroke-linecap="round"/>
</mask>
<g mask="url(#mask0_1312_4721)">
<rect y="-29" width="119" height="193" fill="#C46018"/>
</g>
<g clip-path="url(#clip1_1312_4721)">
<mask id="mask1_1312_4721" style="mask-type:alpha" maskUnits="userSpaceOnUse" x="-301" y="-5" width="903" height="186">
<path d="M-288 168L-224 105L-126 52L37.5 19H66L201 52L229 59H253.5L283 52L318.5 31L358 19L386.5 16C400.5 16 417.5 12.5007 417.5 12.5007C427 9.99966 442.8 5.20004 460 10C481.333 19.8335 527.5 39.3005 541.5 38.5005C553.667 40.0002 580.2 46.1997 589 59" stroke="#9A9A9A" stroke-width="25" stroke-linecap="round"/>
</mask>
<g mask="url(#mask1_1312_4721)">
<rect y="-38" width="119" height="193" fill="url(#paint0_linear_1312_4721)"/>
</g>
</g>
</g>
<defs>
<linearGradient id="paint0_linear_1312_4721" x1="59.5" y1="-38" x2="59.5" y2="155" gradientUnits="userSpaceOnUse">
<stop stop-color="#F88F0E"/>
<stop offset="1" stop-color="#D15E2C"/>
</linearGradient>
<clipPath id="clip0_1312_4721">
<rect width="119" height="176" fill="white"/>
</clipPath>
<clipPath id="clip1_1312_4721">
<rect width="119" height="176" fill="white" transform="translate(0 9)"/>
</clipPath>
</defs>
</svg>
