<svg width="103" height="176" viewBox="0 0 103 176" fill="none" xmlns="http://www.w3.org/2000/svg">
<g clip-path="url(#clip0_1312_4690)">
<mask id="mask0_1312_4690" style="mask-type:alpha" maskUnits="userSpaceOnUse" x="-70" y="0" width="893" height="176">
<path d="M-62 168L2 105L100 52L263.5 19H292L427 52L455 59H479.5L509 52L544.5 31L584 19L612.5 16C626.5 16 643.5 12.5007 643.5 12.5007C653 9.99966 668.8 5.20004 686 10C707.333 19.8335 753.5 39.3005 767.5 38.5005C779.667 40.0002 806.2 46.1997 815 59" stroke="#9A9A9A" stroke-width="15" stroke-linecap="round"/>
</mask>
<g mask="url(#mask0_1312_4690)">
<rect x="-3" y="19" width="106" height="193" fill="url(#paint0_linear_1312_4690)"/>
</g>
</g>
<defs>
<linearGradient id="paint0_linear_1312_4690" x1="-3" y1="115.5" x2="121.214" y2="136.454" gradientUnits="userSpaceOnUse">
<stop stop-color="#FCA84E"/>
<stop offset="1" stop-color="#D46E1F"/>
</linearGradient>
<clipPath id="clip0_1312_4690">
<rect width="103" height="176" fill="white"/>
</clipPath>
</defs>
</svg>
