<svg width="92" height="176" viewBox="0 0 92 176" fill="none" xmlns="http://www.w3.org/2000/svg">
<g clip-path="url(#clip0_1312_4671)">
<mask id="mask0_1312_4671" style="mask-type:alpha" maskUnits="userSpaceOnUse" x="-801" y="0" width="893" height="176">
<path d="M-793 168L-729 105L-631 52L-467.5 19H-439L-304 52L-276 59H-251.5L-222 52L-186.5 31L-147 19L-118.5 16C-104.5 16 -87.5 12.5007 -87.5 12.5007C-78 9.99966 -62.2 5.20004 -45 10C-23.6667 19.8335 22.5 39.3005 36.5 38.5005C48.6667 40.0002 75.2 46.1997 84 59" stroke="#9A9A9A" stroke-width="15" stroke-linecap="round"/>
</mask>
<g mask="url(#mask0_1312_4671)">
<rect y="-38" width="107" height="193" fill="url(#paint0_linear_1312_4671)"/>
</g>
</g>
<defs>
<linearGradient id="paint0_linear_1312_4671" x1="18.725" y1="-52.475" x2="147.559" y2="-16.0616" gradientUnits="userSpaceOnUse">
<stop offset="0.00480769" stop-color="#F88F0E"/>
<stop offset="1" stop-color="#D15E2C"/>
</linearGradient>
<clipPath id="clip0_1312_4671">
<rect width="92" height="176" fill="white"/>
</clipPath>
</defs>
</svg>
